<?xml version="1.0" encoding="UTF-8" standalone="no"?>
<!-- Created with Inkscape (http://www.inkscape.org/) -->

<svg
   version="1.1"
   id="svg2"
   width="666.66669"
   height="666.66669"
   viewBox="0 0 666.66669 666.66669"
   xmlns="http://www.w3.org/2000/svg"
   xmlns:svg="http://www.w3.org/2000/svg">
  <defs
     id="defs6">
    <clipPath
       clipPathUnits="userSpaceOnUse"
       id="clipPath16">
      <path
         d="M 0,500 H 500 V 0 H 0 Z"
         id="path14" />
    </clipPath>
    <clipPath
       clipPathUnits="userSpaceOnUse"
       id="clipPath36">
      <path
         d="m 103.8,261.1 c 0,-81.627 66.172,-147.8 147.8,-147.8 v 0 c 81.628,0 147.8,66.173 147.8,147.8 v 0 c 0,81.628 -66.172,147.8 -147.8,147.8 v 0 c -81.628,0 -147.8,-66.172 -147.8,-147.8"
         id="path34" />
    </clipPath>
    <clipPath
       clipPathUnits="userSpaceOnUse"
       id="clipPath48">
      <path
         d="M 0,500 H 500 V 0 H 0 Z"
         id="path46" />
    </clipPath>
  </defs>
  <g
     id="g8"
     transform="matrix(1.3333333,0,0,-1.3333333,0,666.66667)">
    <g
       id="g10">
      <g
         id="g12"
         clip-path="url(#clipPath16)">
        <g
           id="g18"
           transform="translate(116.4,239.3)">
          <path
             d="m 0,0 c 0.9,0.3 1.5,1.1 1.5,2.1 0,0.9 0,1.6 -0.1,3 -0.8,57.1 33.2,110.1 82.5,131.5 0.6,0.3 1.2,0.6 1.6,1.1 l 9.3,11.2 c 0.7,0.8 0,2 -1,1.7 C 31.6,132.5 -9.8,72.8 -9,4.9 -9,3.2 -8.9,1.6 -8.9,0 c 0.1,-1.3 1.4,-2.3 2.7,-1.9 z"
             style="fill:#f9b5b3;fill-opacity:1;fill-rule:nonzero;stroke:none"
             id="path20" />
        </g>
        <g
           id="g22"
           transform="translate(364.5,323.6)">
          <path
             d="m 0,0 6,1.4 c 1.2,0.3 1.9,1.7 1.2,2.7 -10.5,18 -22.5,31.3 -40.1,42.9 -0.8,0.5 -1.8,0.4 -2.4,-0.2 l -4.3,-4 C -40.5,42 -40.3,40.5 -39.3,39.9 -22.9,29.4 -12,17.4 -2.1,0.9 -1.7,0.2 -0.9,-0.1 0,0"
             style="fill:#f9b5b3;fill-opacity:1;fill-rule:nonzero;stroke:none"
             id="path24" />
        </g>
        <g
           id="g26"
           transform="translate(378.8,234.3)">
          <path
             d="M 0,0 6.5,1.4 C 7.4,1.6 8,2.3 8.1,3.2 8.4,5.6 8.7,8 8.9,10.5 10.3,28 8.5,45 4.1,61 3.8,62 2.8,62.7 1.7,62.5 l -6.2,-1.1 c -1.2,-0.2 -1.9,-1.4 -1.6,-2.6 4.2,-15 5.8,-31 4.6,-47.4 -0.2,-3 -0.6,-6 -1,-8.9 C -2.6,0.9 -1.4,-0.3 0,0"
             style="fill:#f9b5b3;fill-opacity:1;fill-rule:nonzero;stroke:none"
             id="path28" />
        </g>
      </g>
    </g>
    <g
       id="g30">
      <g
         id="g32"
         clip-path="url(#clipPath36)">
        <g
           id="g38"
           transform="translate(131.7,167.3)">
          <path
             d="m 0,0 c 0,0 17.2,8 44.3,-4.8 27.1,-12.8 44.8,-29.8 53.9,-31.1 2.1,-0.3 4,-0.1 5.5,0.4 3.3,1 5.4,4.2 5.1,7.7 -0.4,3.9 -2.2,10.1 -8.5,18.9 -0.4,0.5 0.2,1.2 0.7,0.9 8.6,-3.6 38.1,-16.6 58.2,-17.9 5.7,-0.4 28.2,-2.3 68.8,19.6 10.7,5.8 -36.4,-53.5 -36.4,-53.5 L 61.9,-64.3 Z"
             style="fill:#f9b5b3;fill-opacity:1;fill-rule:nonzero;stroke:none"
             id="path40" />
        </g>
      </g>
    </g>
    <g
       id="g42">
      <g
         id="g44"
         clip-path="url(#clipPath48)">
        <g
           id="g50"
           transform="translate(254.8,358)">
          <path
             d="m 0,0 c -1.4,-4.8 -7.8,-20.5 -32.9,-19.3 -0.3,0 -0.7,0.1 -1,0.3 -1.9,1.1 -8.9,5.8 -5.2,12.8 3,5.8 9.1,4.8 11.5,4.1 0.6,-0.2 1.1,0.2 1.3,0.7 0.7,2.5 3.3,8.4 12,7.6 C -6.8,5.5 -2.7,3.5 -0.9,2.3 -0.1,1.8 0.2,0.9 0,0"
             style="fill:#f9b5b3;fill-opacity:1;fill-rule:nonzero;stroke:none"
             id="path52" />
        </g>
        <g
           id="g54"
           transform="translate(260.8,349.7)">
          <path
             d="m 0,0 c -0.4,0.9 -1.5,1 -1.9,0.2 -2.2,-3.5 -8.4,-11.2 -15.9,-14.8 -6.7,-3.2 -9.5,-3.7 -10.8,-3.9 -0.6,-0.1 -1,-0.7 -0.8,-1.3 0.8,-2.5 3.5,-8.6 10.2,-12.7 1.3,-0.8 2.7,-1.1 4.2,-0.9 1.1,0.2 2.3,0.7 3.2,2 2.3,3 3.7,5.8 8.5,7.6 0.5,0.2 0.7,0.6 0.6,1.1 -0.3,1.5 -0.6,5.3 0.8,8.2 C 0,-10.1 2,-5.2 0,0"
             style="fill:#f9b5b3;fill-opacity:1;fill-rule:nonzero;stroke:none"
             id="path56" />
        </g>
        <g
           id="g58"
           transform="translate(271.8,377.3)">
          <path
             d="m 0,0 c -19.2,-0.1 -64.5,-7.1 -72.4,-46.7 -0.2,-1.2 -17,-21.2 -18,-51.4 0,-0.9 -1.4,-0.9 -1.6,0 -7.7,61.7 26,129.5 131.2,98.1 1.5,-0.4 3,-0.8 4.5,-1 8,-0.9 5.3,-5.2 -5.1,-3.7 -10.8,1.1 -14.2,0.3 -16.4,-0.3 -5.4,-1.6 5.4,-5.8 5.3,-7.4 -1.2,-5 -13.6,3.6 -16.5,5.9 C 8,-3.4 6.5,0.3 0,0"
             style="fill:#f9b5b3;fill-opacity:1;fill-rule:nonzero;stroke:none"
             id="path60" />
        </g>
        <g
           id="g62"
           transform="translate(84.8,125.9)">
          <path
             d="M 0,0 C 1.2,0.6 0.9,2.5 -0.5,2.6 -4,2.9 -8.3,5 -9.3,13.5 -11,28.4 6.5,39.1 6.5,39.1 c 21.3,15.3 51.1,16.6 77.1,9 13.2,-3.8 28.2,-12.2 39.7,-19.7 8.2,-5.3 21.9,-16.7 24,-11.6 1.3,3.4 -12.4,16.5 -15,18.6 -23,18.7 -48.1,25.6 -54,26.9 -9.9,2.1 -28.8,4.8 -48,0.1 -15,-3.6 -49.4,-18 -46.4,-43.8 -3.8,33.8 16.9,44.5 36.7,52 47.7,18 95.6,-12 118,-23.3 25,-12.6 53.9,-21.9 74.6,-21.7 30.9,0.3 56.9,15.3 80.1,28.3 22.5,12.6 39.4,20 53,7.3 1.6,-1.5 4.5,-7.8 -1.5,-14.8 -2.7,-3.1 7.3,-2.4 12.1,4.2 5.6,7.7 3.4,16.1 -0.2,20.7 -5.3,6.7 -15.1,10.4 -26.1,9.9 -13.9,-0.6 -41.3,-13.5 -46.4,-15.8 -12.4,-5.7 -47.9,-18.3 -80.3,-17.1 -34.4,1.3 -73.3,25.4 -77.4,27.8 -4,2.3 -46,25.6 -90.4,20.4 C 10,93.5 -35.2,72.2 -29,26.2 -27.3,13.7 -14,-7.3 0,0"
             style="fill:#f9b5b3;fill-opacity:1;fill-rule:nonzero;stroke:none"
             id="path64" />
        </g>
        <g
           id="g66"
           transform="translate(232.6,304.5)">
          <path
             d="m 0,0 c -22,-8.2 -34.7,-30.8 -34.5,-52.1 0,-2.3 0.1,-7.5 0.6,-10.3 0.6,-3.2 0.5,-7.2 9,-23.4 3.6,-6.9 -17.3,15.3 -21.4,40.8 -2.8,17.8 2.9,43.7 15.6,62.9 0.5,0.7 1.2,1.2 2.1,1.3 3,0.2 8.8,1.6 16.4,6.2 1,0.6 2.4,0.1 2.6,-1.1 C -8.5,19.2 -5.7,8.3 0.5,3 1.5,2.1 1.3,0.5 0,0"
             style="fill:#f9b5b3;fill-opacity:1;fill-rule:nonzero;stroke:none"
             id="path68" />
        </g>
        <g
           id="g70"
           transform="translate(442.6,265.5)">
          <path
             d="m 0,0 c -0.3,1.4 -2.1,2.1 -3.1,1.1 -17.4,-18.2 -19.3,-9.7 -25.5,-16.7 -4.9,-7.3 -10.5,-13.9 -17.3,-18.2 -23.1,-14.7 -51.8,-13.3 -66.7,-20.7 -26.3,-13.1 -41.8,12.3 -84.6,21.6 -3.6,0.8 -11.6,3.2 -15.5,10.8 -7.2,14.1 -2.9,33 13.5,40.4 8.5,3.8 19.8,4.7 32.4,5.8 38.2,3.3 58.1,7.3 83.8,15.5 0,0 16.1,5.2 20.5,1.9 4.4,-3.3 9.4,-9.4 15.8,-11.1 6.4,-1.7 7.5,-1.1 7,0.6 -0.4,1.7 -11.9,6.6 -7.5,8.3 4.5,1.7 10.2,-1.1 14.7,-1.1 4.5,0 12.6,-0.6 13.6,1.1 1.1,1.7 -0.6,1.7 -2.1,1.9 -1.5,0.2 -15.6,1.9 -20,4.7 -22.4,6.6 -60.7,1.7 -85.3,-3 -35,-8.3 -85.3,8.9 -107.1,-34.5 -25.2,-61.8 45.8,-95.8 108.8,-86.8 45,6.1 120.2,50.7 124.6,78.4"
             style="fill:#f9b5b3;fill-opacity:1;fill-rule:nonzero;stroke:none"
             id="path72" />
        </g>
      </g>
    </g>
  </g>
</svg>
